<?xml version="1.0" encoding="iso-8859-1"?>
<!-- Generator: Adobe Illustrator 19.0.0, SVG Export Plug-In . SVG Version: 6.00 Build 0)  -->
<svg fill="#afafaf" version="1.1" id="Capa_1" xmlns="http://www.w3.org/2000/svg" xmlns:xlink="http://www.w3.org/1999/xlink" x="0px" y="0px"
	 viewBox="0 0 488.775 488.775" style="enable-background:new 0 0 488.775 488.775;" xml:space="preserve">
<g xmlns="http://www.w3.org/2000/svg" >
      <path d="m34,256l26.2,26.2c108,108 283.7,108 391.7,0l26.1-26.2-26.2-26.2c-108-108-283.7-108-391.7,0l-26.1,26.2zm222,126.2c-75.8,0-151.6-28.9-209.3-86.6l-32.9-32.9c-3.7-3.7-3.7-9.7 0-13.5l32.9-32.9c115.4-115.4 303.2-115.4 418.6,0l32.9,32.9c3.7,3.7 3.7,9.7 0,13.5l-32.9,32.9c-57.7,57.7-133.5,86.6-209.3,86.6z"/>
      <path d="m256,183.5c-40,0-72.5,32.5-72.5,72.5s32.5,72.5 72.5,72.5c40,0 72.5-32.5 72.5-72.5s-32.5-72.5-72.5-72.5zm0,164c-50.5,0-91.5-41.1-91.5-91.5 0-50.5 41.1-91.5 91.5-91.5s91.5,41.1 91.5,91.5c0,50.5-41,91.5-91.5,91.5z"/>
    </g>
</svg>
